<svg width="30" height="30" viewBox="0 0 30 30" fill="none" xmlns="http://www.w3.org/2000/svg">
<path d="M27.9669 11.9494V11.177C27.9669 11.0577 27.8905 10.9516 27.7773 10.9139L25.2811 10.0818C25.1015 10.022 24.916 10.1556 24.916 10.345V11.9494H27.9669Z" fill="#FF7D5A"/>
<path d="M9.15248 19.0684H2.03387C1.75309 19.0684 1.52539 18.8407 1.52539 18.5599V17.543H9.15248V19.0684Z" fill="#8D8A94"/>
<path d="M13.7565 18.0508H1.01629C0.735508 18.0508 0.507812 17.8231 0.507812 17.5423V16.5254H17.2875L14.6661 17.8361C14.3836 17.9773 14.0723 18.0508 13.7565 18.0508Z" fill="#A7A5AC"/>
<path d="M8.1348 20.085C8.97728 20.085 9.66023 19.4021 9.66023 18.5596C9.66023 17.7171 8.97728 17.0342 8.1348 17.0342C7.29233 17.0342 6.60938 17.7171 6.60938 18.5596C6.60938 19.4021 7.29233 20.085 8.1348 20.085Z" fill="#504B5A"/>
<path d="M8.13576 19.3223C8.557 19.3223 8.89847 18.9808 8.89847 18.5596C8.89847 18.1384 8.557 17.7969 8.13576 17.7969C7.71453 17.7969 7.37305 18.1384 7.37305 18.5596C7.37305 18.9808 7.71453 19.3223 8.13576 19.3223Z" fill="#DCDBDE"/>
<path d="M5.08402 20.085C5.92649 20.085 6.60945 19.4021 6.60945 18.5596C6.60945 17.7171 5.92649 17.0342 5.08402 17.0342C4.24155 17.0342 3.55859 17.7171 3.55859 18.5596C3.55859 19.4021 4.24155 20.085 5.08402 20.085Z" fill="#504B5A"/>
<path d="M5.08498 19.3223C5.50622 19.3223 5.8477 18.9808 5.8477 18.5596C5.8477 18.1384 5.50622 17.7969 5.08498 17.7969C4.66374 17.7969 4.32227 18.1384 4.32227 18.5596C4.32227 18.9808 4.66374 19.3223 5.08498 19.3223Z" fill="#DCDBDE"/>
<path d="M30.0009 17.0342H18.8145V19.0681H30.0009V17.0342Z" fill="#B9B7BD"/>
<path d="M21.8653 20.085C22.7077 20.085 23.3907 19.4021 23.3907 18.5596C23.3907 17.7171 22.7077 17.0342 21.8653 17.0342C21.0228 17.0342 20.3398 17.7171 20.3398 18.5596C20.3398 19.4021 21.0228 20.085 21.8653 20.085Z" fill="#504B5A"/>
<path d="M21.8643 19.3223C22.2855 19.3223 22.627 18.9808 22.627 18.5596C22.627 18.1384 22.2855 17.7969 21.8643 17.7969C21.443 17.7969 21.1016 18.1384 21.1016 18.5596C21.1016 18.9808 21.443 19.3223 21.8643 19.3223Z" fill="#DCDBDE"/>
<path d="M18.8145 20.085C19.657 20.085 20.3399 19.4021 20.3399 18.5596C20.3399 17.7171 19.657 17.0342 18.8145 17.0342C17.972 17.0342 17.2891 17.7171 17.2891 18.5596C17.2891 19.4021 17.972 20.085 18.8145 20.085Z" fill="#504B5A"/>
<path d="M18.8135 19.3223C19.2347 19.3223 19.5762 18.9808 19.5762 18.5596C19.5762 18.1384 19.2347 17.7969 18.8135 17.7969C18.3923 17.7969 18.0508 18.1384 18.0508 18.5596C18.0508 18.9808 18.3923 19.3223 18.8135 19.3223Z" fill="#DCDBDE"/>
<path d="M30.0008 18.0506H27.4584V17.0337H24.916V11.4404H29.0434C29.2999 11.4404 29.5162 11.6314 29.548 11.8859L29.9026 14.723C29.968 15.246 30.0008 15.7726 30.0008 16.2997V18.0506Z" fill="#FF9164"/>
<path d="M29.9994 17.0342H27.457V18.0511H29.9994V17.0342Z" fill="#FF7D5A"/>
<path d="M27.4571 20.085C28.2995 20.085 28.9825 19.4021 28.9825 18.5596C28.9825 17.7171 28.2995 17.0342 27.4571 17.0342C26.6146 17.0342 25.9316 17.7171 25.9316 18.5596C25.9316 19.4021 26.6146 20.085 27.4571 20.085Z" fill="#504B5A"/>
<path d="M27.458 19.3223C27.8793 19.3223 28.2207 18.9808 28.2207 18.5596C28.2207 18.1384 27.8793 17.7969 27.458 17.7969C27.0368 17.7969 26.6953 18.1384 26.6953 18.5596C26.6953 18.9808 27.0368 19.3223 27.458 19.3223Z" fill="#DCDBDE"/>
<path d="M27.4571 12.457H26.1859C26.0455 12.457 25.9316 12.5709 25.9316 12.7113V14.185C25.9316 14.3637 26.0558 14.5185 26.2302 14.5573L27.4571 14.8298V12.457Z" fill="#FF7D5A"/>
<path d="M29.9013 14.7226L29.6181 12.457H26.1859C26.0455 12.457 25.9316 12.5709 25.9316 12.7113V14.185C25.9316 14.3637 26.0558 14.5185 26.2302 14.5573L29.9634 15.3868C29.9475 15.1651 29.9289 14.9433 29.9013 14.7226Z" fill="#FF7D5A"/>
<path d="M27.457 14.8299L29.9634 15.3869C29.9475 15.1651 29.9289 14.9434 29.9013 14.7226L29.618 12.457H27.457V14.8299Z" fill="#625D6B"/>
<path d="M0.508477 9.91504H23.8983C24.1791 9.91504 24.4068 10.1427 24.4068 10.4235V16.5252C24.4068 16.806 24.1791 17.0337 23.8983 17.0337H0.508477C0.227695 17.0337 0 16.806 0 16.5252V10.4235C0 10.1427 0.227695 9.91504 0.508477 9.91504Z" fill="#FFB47D"/>
<path d="M22.882 16.017H1.52605C1.24527 16.017 1.01758 15.7893 1.01758 15.5085C1.01758 15.2277 1.24527 15 1.52605 15H22.882C23.1628 15 23.3905 15.2277 23.3905 15.5085C23.3904 15.7893 23.1628 16.017 22.882 16.017Z" fill="#FF9164"/>
</svg>
