<svg width="30" height="22" viewBox="0 0 30 22" fill="none" xmlns="http://www.w3.org/2000/svg">
<path d="M18.6266 13.6617L15.7141 17.8666H0.779297V9.80762H15.7141L18.6266 13.6617Z" fill="#958B95"/>
<path d="M0.779297 9.80762H3.45152V17.8665H0.779297V9.80762Z" fill="#868086"/>
<path d="M26.5957 17.8662H27.4752C28.3693 17.8662 29.094 17.1415 29.094 16.2475V11.9894C29.094 11.7972 29.0587 11.6067 28.9901 11.4272L25.5177 2.34717C25.1732 1.44646 24.3088 0.851562 23.3445 0.851562H17.7084C16.6063 0.851562 15.7129 1.745 15.7129 2.84709V17.8662H26.5957Z" fill="#E7A52E"/>
<path d="M19.7137 0.851562C18.6115 0.851562 17.7181 1.74494 17.7181 2.84715V17.8665H15.7129V2.84715C15.7129 1.74494 16.6063 0.851562 17.7085 0.851562H19.7137Z" fill="#E49824"/>
<path d="M25.1908 9.80721H19.8876C19.4158 9.80721 19.0332 9.42471 19.0332 8.95279V3.70121C19.0332 3.12969 19.5008 2.66211 20.0723 2.66211H23.3448C23.5572 2.66211 23.7504 2.79553 23.8265 2.9941L25.9888 8.64758C26.2027 9.20703 25.7897 9.80721 25.1908 9.80721Z" fill="#544F57"/>
<path d="M25.1903 10.2605H19.8875C19.1666 10.2605 18.5801 9.67398 18.5801 8.95304V3.70152C18.5801 2.8791 19.2495 2.20996 20.0722 2.20996H23.3445C23.7427 2.20996 24.1062 2.46021 24.2489 2.83269L26.4111 8.48646C26.565 8.88771 26.5113 9.33912 26.2675 9.69378C26.0235 10.0487 25.6208 10.2605 25.1903 10.2605ZM20.0722 3.11547C19.7487 3.11547 19.4855 3.37838 19.4855 3.70158V8.9531C19.4855 9.17476 19.6658 9.35511 19.8875 9.35511H25.1903C25.3245 9.35511 25.4452 9.2916 25.5213 9.18085C25.5973 9.07035 25.6134 8.93529 25.5656 8.81037L23.4033 3.15654C23.3944 3.13328 23.369 3.11553 23.3445 3.11553H20.0722V3.11547Z" fill="#E49824"/>
<path d="M22.9535 21.1482C24.7659 21.1482 26.2351 19.6789 26.2351 17.8666C26.2351 16.0542 24.7659 14.585 22.9535 14.585C21.1411 14.585 19.6719 16.0542 19.6719 17.8666C19.6719 19.6789 21.1411 21.1482 22.9535 21.1482Z" fill="#787078"/>
<path d="M23.6799 21.0673C23.4463 21.1204 23.2031 21.1482 22.9532 21.1482C21.1411 21.1482 19.6719 19.6789 19.6719 17.8669C19.6719 16.0542 21.1411 14.585 22.9532 14.585C23.2031 14.585 23.4464 14.6127 23.6799 14.6658C22.2174 14.9966 21.1254 16.304 21.1254 17.8668C21.1254 19.4291 22.2173 20.7365 23.6799 21.0673Z" fill="#544F57"/>
<path d="M22.9525 19.4148C23.8076 19.4148 24.5007 18.7216 24.5007 17.8666C24.5007 17.0115 23.8076 16.3184 22.9525 16.3184C22.0975 16.3184 21.4043 17.0115 21.4043 17.8666C21.4043 18.7216 22.0975 19.4148 22.9525 19.4148Z" fill="#F9F6F9"/>
<path d="M24.5011 17.8666C24.5011 18.7214 23.8081 19.4149 22.9528 19.4149C22.7771 19.4149 22.6081 19.386 22.4512 19.331C23.0596 19.1234 23.4972 18.5457 23.4972 17.8666C23.4972 17.187 23.0596 16.6099 22.4512 16.4023C22.6081 16.3474 22.7771 16.3184 22.9528 16.3184C23.8081 16.3184 24.5011 17.0113 24.5011 17.8666Z" fill="#DDDAEC"/>
<path d="M7.02574 21.1482C8.83812 21.1482 10.3073 19.6789 10.3073 17.8666C10.3073 16.0542 8.83812 14.585 7.02574 14.585C5.21336 14.585 3.74414 16.0542 3.74414 17.8666C3.74414 19.6789 5.21336 21.1482 7.02574 21.1482Z" fill="#787078"/>
<path d="M7.75219 21.0673C7.51857 21.1204 7.27535 21.1482 7.02545 21.1482C5.21338 21.1482 3.74414 19.6789 3.74414 17.8669C3.74414 16.0542 5.21338 14.585 7.02545 14.585C7.27535 14.585 7.51863 14.6127 7.75219 14.6658C6.28963 14.9966 5.19768 16.304 5.19768 17.8668C5.19768 19.4291 6.28963 20.7365 7.75219 21.0673Z" fill="#544F57"/>
<path d="M7.02479 19.4148C7.87984 19.4148 8.57301 18.7216 8.57301 17.8666C8.57301 17.0115 7.87984 16.3184 7.02479 16.3184C6.16973 16.3184 5.47656 17.0115 5.47656 17.8666C5.47656 18.7216 6.16973 19.4148 7.02479 19.4148Z" fill="#F9F6F9"/>
<path d="M8.57334 17.8666C8.57334 18.7213 7.88035 19.4149 7.02506 19.4149C6.84939 19.4149 6.68041 19.386 6.52344 19.331C7.13187 19.1234 7.56951 18.5457 7.56951 17.8666C7.56951 17.187 7.13187 16.6099 6.52344 16.4023C6.68041 16.3474 6.84939 16.3184 7.02506 16.3184C7.88041 16.3184 8.57334 17.0113 8.57334 17.8666Z" fill="#DDDAEC"/>
<path d="M29.2593 15.3418H28.218C27.8085 15.3418 27.4766 15.6738 27.4766 16.0832V17.519C27.4766 17.9285 27.8086 18.2605 28.218 18.2605H29.2593C29.6688 18.2605 30.0007 17.9285 30.0007 17.519V16.0832C30.0007 15.6737 29.6688 15.3418 29.2593 15.3418Z" fill="#F9F6F9"/>
<path d="M29.2217 18.2609H28.2178C27.8086 18.2609 27.4766 17.9289 27.4766 17.519V16.0837C27.4766 15.6738 27.8086 15.3418 28.2178 15.3418H29.2217C28.8124 15.3418 28.4805 15.6738 28.4805 16.0837V17.519C28.4804 17.9289 28.8124 18.2609 29.2217 18.2609Z" fill="#DDDAEC"/>
<path d="M1.78277 15.3418H0.741445C0.331992 15.3418 0 15.6737 0 16.0832V17.519C0 17.9285 0.331992 18.2605 0.741445 18.2605H1.78271C2.19223 18.2605 2.52416 17.9285 2.52416 17.519V16.0832C2.52422 15.6737 2.19223 15.3418 1.78277 15.3418Z" fill="#F9F6F9"/>
<path d="M1.74504 18.2609H0.741269C0.331992 18.2609 0 17.9289 0 17.519V16.0837C0 15.6738 0.331992 15.3418 0.741269 15.3418H1.7451C1.33588 15.3418 1.00389 15.6738 1.00389 16.0837V17.519C1.00383 17.9289 1.33582 18.2609 1.74504 18.2609Z" fill="#DDDAEC"/>
<path d="M14.2904 11.9064H2.4273C2.17723 11.9064 1.97461 11.7037 1.97461 11.4537C1.97461 11.2037 2.17728 11.001 2.4273 11.001H14.2904C14.5404 11.001 14.7431 11.2037 14.7431 11.4537C14.7431 11.7037 14.5404 11.9064 14.2904 11.9064Z" fill="#787078"/>
<path d="M26.6447 14.0913C26.1624 14.0913 25.7715 13.7004 25.7715 13.2182V12.5558C25.7715 12.0736 26.1624 11.6826 26.6447 11.6826C27.1269 11.6826 27.5178 12.0736 27.5178 12.5558V13.2182C27.5178 13.7004 27.1269 14.0913 26.6447 14.0913Z" fill="#F1E64D"/>
<path d="M26.986 14.0216C26.881 14.0662 26.7656 14.091 26.6443 14.091C26.162 14.091 25.7715 13.7005 25.7715 13.2182V12.5554C25.7715 12.0731 26.162 11.6826 26.6443 11.6826C26.7656 11.6826 26.8809 11.7073 26.986 11.7521C26.6733 11.8842 26.4536 12.1945 26.4536 12.5555V13.2182C26.4536 13.5791 26.6733 13.8894 26.986 14.0216Z" fill="#FFC250"/>
<path d="M20.4328 11.7863H18.9273C18.6772 11.7863 18.4746 11.5836 18.4746 11.3336C18.4746 11.0835 18.6773 10.8809 18.9273 10.8809H20.4328C20.6829 10.8809 20.8855 11.0835 20.8855 11.3336C20.8855 11.5836 20.6829 11.7863 20.4328 11.7863Z" fill="#F9F6F9"/>
</svg>
