<svg width="30" height="30" viewBox="0 0 30 30" fill="none" xmlns="http://www.w3.org/2000/svg">
<path d="M0.483867 7.25781H22.7419C23.0092 7.25781 23.2258 7.47443 23.2258 7.74168V18.8707H0.483867C0.216621 18.8707 0 18.6541 0 18.3868V7.74168C0 7.47443 0.216621 7.25781 0.483867 7.25781Z" fill="#96C3F0"/>
<path d="M23.2258 18.871H0.483867C0.216621 18.871 0 18.6544 0 18.3872V16.9355H23.2258V18.871Z" fill="#7DA5D7"/>
<path d="M29.7173 15.2002L29.033 14.5159L27.904 11.1289H28.0653C28.3325 11.1289 28.5492 10.9122 28.5492 10.645C28.5492 10.3778 28.3325 10.1611 28.0653 10.1611H23.7104C23.4432 10.1611 23.2266 10.3778 23.2266 10.645V18.8708H25.162V20.3224L29.5169 20.3226C29.7841 20.3226 30.0008 20.106 30.0008 19.8388V15.8846C30.0008 15.6279 29.8988 15.3818 29.7173 15.2002Z" fill="#FFD164"/>
<path d="M29.7173 15.2002L29.033 14.5159L27.904 11.1289H28.0653C28.3325 11.1289 28.5492 10.9122 28.5492 10.645C28.5492 10.3778 28.3325 10.1611 28.0653 10.1611H23.7104C23.4432 10.1611 23.2266 10.3778 23.2266 10.645V20.3224L29.5169 20.3226C29.7841 20.3226 30.0008 20.106 30.0008 19.8388V15.8846C30.0008 15.6279 29.8988 15.3818 29.7173 15.2002Z" fill="#DBD9DC"/>
<path d="M23.2266 20.3227H29.5169C29.7841 20.3227 30.0008 20.1061 30.0008 19.8388V18.8711H23.2266V20.3227Z" fill="#C9C6CA"/>
<path d="M24.1934 11.6128V14.0321C24.1934 14.2994 24.41 14.516 24.6772 14.516H29.0321L27.903 11.1289H24.6772C24.41 11.1288 24.1934 11.3455 24.1934 11.6128Z" fill="#C9C6CA"/>
<path d="M25.1621 12.5805V14.0321C25.1621 14.2994 25.3787 14.516 25.646 14.516H29.033L28.2266 12.0967H25.646C25.3788 12.0966 25.1621 12.3132 25.1621 12.5805Z" fill="#5D5360"/>
<path d="M28.2266 12.0967H25.646C25.3787 12.0967 25.1621 12.3133 25.1621 12.5805V13.0644H28.5492L28.2266 12.0967Z" fill="#4B3F4E"/>
<path d="M25.1608 20.8066H1.93504C1.66779 20.8066 1.45117 20.5899 1.45117 20.3227V18.8711H25.1608V20.8066Z" fill="#6F6571"/>
<path d="M25.1619 22.7418C26.2308 22.7418 27.0973 21.8753 27.0973 20.8064C27.0973 19.7376 26.2308 18.8711 25.1619 18.8711C24.093 18.8711 23.2266 19.7376 23.2266 20.8064C23.2266 21.8753 24.093 22.7418 25.1619 22.7418Z" fill="#4B3F4E"/>
<path d="M25.1611 21.7743C25.6956 21.7743 26.1288 21.3411 26.1288 20.8066C26.1288 20.2721 25.6956 19.8389 25.1611 19.8389C24.6266 19.8389 24.1934 20.2721 24.1934 20.8066C24.1934 21.3411 24.6266 21.7743 25.1611 21.7743Z" fill="#6F6571"/>
<path d="M9.19316 22.7418C10.262 22.7418 11.1285 21.8753 11.1285 20.8064C11.1285 19.7376 10.262 18.8711 9.19316 18.8711C8.1243 18.8711 7.25781 19.7376 7.25781 20.8064C7.25781 21.8753 8.1243 22.7418 9.19316 22.7418Z" fill="#4B3F4E"/>
<path d="M9.1943 21.7743C9.72876 21.7743 10.162 21.3411 10.162 20.8066C10.162 20.2721 9.72876 19.8389 9.1943 19.8389C8.65983 19.8389 8.22656 20.2721 8.22656 20.8066C8.22656 21.3411 8.65983 21.7743 9.1943 21.7743Z" fill="#6F6571"/>
<path d="M5.32207 22.7418C6.39094 22.7418 7.25742 21.8753 7.25742 20.8064C7.25742 19.7376 6.39094 18.8711 5.32207 18.8711C4.25321 18.8711 3.38672 19.7376 3.38672 20.8064C3.38672 21.8753 4.25321 22.7418 5.32207 22.7418Z" fill="#4B3F4E"/>
<path d="M5.3232 21.7743C5.85767 21.7743 6.29094 21.3411 6.29094 20.8066C6.29094 20.2721 5.85767 19.8389 5.3232 19.8389C4.78874 19.8389 4.35547 20.2721 4.35547 20.8066C4.35547 21.3411 4.78874 21.7743 5.3232 21.7743Z" fill="#6F6571"/>
<path d="M30.0004 17.9028H29.0327C28.7654 17.9028 28.5488 17.6862 28.5488 17.4189V16.935C28.5488 16.6678 28.7654 16.4512 29.0327 16.4512H30.0004V17.9028Z" fill="#FAEBC8"/>
</svg>
