<svg width="30" height="30" viewBox="0 0 30 30" fill="none" xmlns="http://www.w3.org/2000/svg">
<g clip-path="url(#clip0_7_15339)">
<path d="M18.125 22.875H1.56252C0.68748 22.875 0 22.125 0 21.25V5.56246C0 4.68748 0.68748 4 1.56252 4H16.5625C17.4375 4 18.125 4.68748 18.125 5.56252V22.875H18.125Z" fill="#FFD15C"/>
<path d="M29.5625 12.75L25.5625 8.75002C25.3125 8.5 24.9375 8.3125 24.5625 8.3125H18.125V22.875H28.375C29.25 22.875 30 22.125 30 21.2501V13.7501C30 13.3125 29.875 13.0001 29.5625 12.75Z" fill="#F3705A"/>
<path d="M0 20.125V21.25C0 22.1249 0.68748 22.8125 1.56252 22.8125H28.375C29.25 22.8125 30 22.0625 30 21.1875V20.0625H0V20.125Z" fill="#344A5E"/>
<path d="M27.875 15.9375V14L24.3125 10.375H20.25V15.9375H27.875Z" fill="#415A6B"/>
<path d="M7.62498 26C9.76507 26 11.5 24.2651 11.5 22.125C11.5 19.9849 9.76507 18.25 7.62498 18.25C5.48489 18.25 3.75 19.9849 3.75 22.125C3.75 24.2651 5.48489 26 7.62498 26Z" fill="#415A6B"/>
<path d="M7.625 24C8.66053 24 9.5 23.1605 9.5 22.125C9.5 21.0895 8.66053 20.25 7.625 20.25C6.58947 20.25 5.75 21.0895 5.75 22.125C5.75 23.1605 6.58947 24 7.625 24Z" fill="#E8EAE9"/>
<path d="M23.375 26C25.5151 26 27.25 24.2651 27.25 22.125C27.25 19.9849 25.5151 18.25 23.375 18.25C21.2349 18.25 19.5 19.9849 19.5 22.125C19.5 24.2651 21.2349 26 23.375 26Z" fill="#415A6B"/>
<path d="M23.375 24C24.4105 24 25.25 23.1605 25.25 22.125C25.25 21.0895 24.4105 20.25 23.375 20.25C22.3395 20.25 21.5 21.0895 21.5 22.125C21.5 23.1605 22.3395 24 23.375 24Z" fill="#E8EAE9"/>
<path d="M3.93752 6.625C3.18752 6.625 2.5625 7.25002 2.5625 8.00002V16.0625C2.5625 16.8125 3.18752 17.4375 3.93752 17.4375C4.68752 17.4375 5.31254 16.8125 5.31254 16.0625V8.00002C5.25002 7.24996 4.68752 6.625 3.93752 6.625Z" fill="#F7B64C"/>
<path d="M9.00002 6.625C8.25002 6.625 7.625 7.25002 7.625 8.00002V16.0625C7.625 16.8125 8.25002 17.4375 9.00002 17.4375C9.75002 17.4375 10.375 16.8125 10.375 16.0625V8.00002C10.3125 7.24996 9.75002 6.625 9.00002 6.625Z" fill="#F7B64C"/>
<path d="M14.0625 6.625C13.3125 6.625 12.6875 7.25002 12.6875 8.00002V16.0625C12.6875 16.8125 13.3125 17.4375 14.0625 17.4375C14.8125 17.4375 15.4375 16.8125 15.4375 16.0625V8.00002C15.375 7.24996 14.8125 6.625 14.0625 6.625Z" fill="#F7B64C"/>
</g>
<defs>
<clipPath id="clip0_7_15339">
<rect width="30" height="30" fill="white"/>
</clipPath>
</defs>
</svg>
