<svg width="30" height="31" viewBox="0 0 30 31" fill="none" xmlns="http://www.w3.org/2000/svg">
<path d="M20 13H10C9.3125 13 8.75 13.5625 8.75 14.25C8.75 14.9375 9.3125 15.5 10 15.5H20C20.6875 15.5 21.25 14.9375 21.25 14.25C21.25 13.5625 20.6875 13 20 13ZM23.75 4.25H22.5V3C22.5 2.3125 21.9375 1.75 21.25 1.75C20.5625 1.75 20 2.3125 20 3V4.25H10V3C10 2.3125 9.4375 1.75 8.75 1.75C8.0625 1.75 7.5 2.3125 7.5 3V4.25H6.25C4.8625 4.25 3.75 5.375 3.75 6.75V24.25C3.75 25.625 4.8625 26.75 6.25 26.75H23.75C25.125 26.75 26.25 25.625 26.25 24.25V6.75C26.25 5.375 25.125 4.25 23.75 4.25ZM22.5 24.25H7.5C6.8125 24.25 6.25 23.6875 6.25 23V10.5H23.75V23C23.75 23.6875 23.1875 24.25 22.5 24.25ZM16.25 18H10C9.3125 18 8.75 18.5625 8.75 19.25C8.75 19.9375 9.3125 20.5 10 20.5H16.25C16.9375 20.5 17.5 19.9375 17.5 19.25C17.5 18.5625 16.9375 18 16.25 18Z" fill="#5FBB97"/>
</svg>
