<svg width="16" height="16" viewBox="0 0 16 16" fill="none" xmlns="http://www.w3.org/2000/svg">
<g clip-path="url(#clip0_1204_75208)">
<path d="M14.2733 7.71967L8.27325 1.71967C8.03325 1.47967 7.69992 1.33301 7.33325 1.33301H2.66659C1.93325 1.33301 1.33325 1.93301 1.33325 2.66634V7.33301C1.33325 7.69967 1.47992 8.03301 1.72659 8.27967L7.72659 14.2797C7.96659 14.5197 8.29992 14.6663 8.66659 14.6663C9.03325 14.6663 9.36659 14.5197 9.60659 14.273L14.2733 9.60634C14.5199 9.36634 14.6666 9.03301 14.6666 8.66634C14.6666 8.29967 14.5133 7.95967 14.2733 7.71967ZM8.66659 13.3397L2.66659 7.33301V2.66634H7.33325V2.65967L13.3333 8.65967L8.66659 13.3397Z" fill="#007683"/>
<path d="M4.33325 5.33301C4.88554 5.33301 5.33325 4.88529 5.33325 4.33301C5.33325 3.78072 4.88554 3.33301 4.33325 3.33301C3.78097 3.33301 3.33325 3.78072 3.33325 4.33301C3.33325 4.88529 3.78097 5.33301 4.33325 5.33301Z" fill="#007683"/>
</g>
<defs>
<clipPath id="clip0_1204_75208">
<rect width="16" height="16" fill="white"/>
</clipPath>
</defs>
</svg>
