<svg width="13" height="16" viewBox="0 0 13 16" fill="none" xmlns="http://www.w3.org/2000/svg">
<path d="M6.50019 3.18717H3.35894L4.49644 2.05842C4.6612 1.89366 4.75377 1.67019 4.75377 1.43717C4.75377 1.20416 4.6612 0.98069 4.49644 0.815924C4.33167 0.651158 4.1082 0.558594 3.87519 0.558594C3.64217 0.558594 3.4187 0.651158 3.25394 0.815924L0.628941 3.44092C0.546928 3.52227 0.481833 3.61904 0.437411 3.72567C0.392988 3.83229 0.370117 3.94666 0.370117 4.06217C0.370117 4.17768 0.392988 4.29205 0.437411 4.39868C0.481833 4.5053 0.546928 4.60208 0.628941 4.68342L3.25394 7.30842C3.4187 7.47319 3.64217 7.56575 3.87519 7.56575C4.1082 7.56575 4.33167 7.47319 4.49644 7.30842C4.6612 7.14366 4.75377 6.92019 4.75377 6.68717C4.75377 6.45416 4.6612 6.23069 4.49644 6.06592L3.35894 4.93717H6.50019C7.36548 4.93717 8.21134 5.19376 8.93081 5.67449C9.65027 6.15522 10.211 6.8385 10.5422 7.63793C10.8733 8.43736 10.9599 9.31702 10.7911 10.1657C10.6223 11.0144 10.2056 11.7939 9.59378 12.4058C8.98192 13.0176 8.20237 13.4343 7.35371 13.6031C6.50504 13.7719 5.62537 13.6853 4.82595 13.3541C4.02652 13.023 3.34324 12.4623 2.86251 11.7428C2.38178 11.0233 2.12519 10.1775 2.12519 9.31217C2.12519 9.0801 2.033 8.85755 1.86891 8.69345C1.70481 8.52936 1.48225 8.43717 1.25019 8.43717C1.01813 8.43717 0.795567 8.52936 0.631472 8.69345C0.467378 8.85755 0.375191 9.0801 0.375191 9.31217C0.375191 10.5236 0.734416 11.7078 1.40744 12.715C2.08046 13.7223 3.03706 14.5073 4.15625 14.9709C5.27545 15.4345 6.50698 15.5558 7.69511 15.3195C8.88325 15.0831 9.97462 14.4998 10.8312 13.6432C11.6878 12.7866 12.2712 11.6952 12.5075 10.5071C12.7438 9.31896 12.6225 8.08743 12.1589 6.96823C11.6954 5.84904 10.9103 4.89244 9.90305 4.21942C8.8958 3.5464 7.7116 3.18717 6.50019 3.18717Z" fill="#007683"/>
</svg>
