<svg width="14" height="16" viewBox="0 0 14 16" fill="none" xmlns="http://www.w3.org/2000/svg">
<path d="M13.9067 7.55656C13.8511 7.41335 13.7679 7.28251 13.6617 7.17156L7.82833 1.33822C7.71956 1.22945 7.59042 1.14316 7.44829 1.08429C7.30617 1.02542 7.15384 0.995117 7 0.995117C6.68932 0.995117 6.39135 1.11854 6.17167 1.33822C6.06289 1.447 5.9766 1.57614 5.91773 1.71827C5.85886 1.86039 5.82856 2.01272 5.82856 2.16656C5.82856 2.47724 5.95198 2.7752 6.17167 2.99489L10.0217 6.83322H1.16667C0.857247 6.83322 0.560501 6.95614 0.341709 7.17493C0.122917 7.39373 0 7.69047 0 7.99989C0 8.30931 0.122917 8.60606 0.341709 8.82485C0.560501 9.04364 0.857247 9.16656 1.16667 9.16656H10.0217L6.17167 13.0049C6.06232 13.1133 5.97552 13.2424 5.91629 13.3846C5.85706 13.5267 5.82657 13.6792 5.82657 13.8332C5.82657 13.9872 5.85706 14.1397 5.91629 14.2819C5.97552 14.4241 6.06232 14.5531 6.17167 14.6616C6.28012 14.7709 6.40916 14.8577 6.55133 14.9169C6.6935 14.9762 6.84599 15.0067 7 15.0067C7.15401 15.0067 7.3065 14.9762 7.44867 14.9169C7.59084 14.8577 7.71988 14.7709 7.82833 14.6616L13.6617 8.82822C13.7679 8.71727 13.8511 8.58643 13.9067 8.44322C14.0234 8.15919 14.0234 7.8406 13.9067 7.55656Z" fill="white"/>
</svg>
